<?xml version="1.0" encoding="UTF-8"?>
<svg version="1.1" xmlns="http://www.w3.org/2000/svg" width="390" height="157">
<path d="M0 0 C128.7 0 257.4 0 390 0 C390 51.81 390 103.62 390 157 C261.3 157 132.6 157 0 157 C0 105.19 0 53.38 0 0 Z " fill="#FEFEFE" transform="translate(0,0)"/>
<path d="M0 0 C24.09 0 48.18 0 73 0 C73 24.09 73 48.18 73 73 C48.91 73 24.82 73 0 73 C0 48.91 0 24.82 0 0 Z " fill="#02263F" transform="translate(44,42)"/>
<path d="M0 0 C0.5625 1.9375 0.5625 1.9375 1 4 C-0.65284503 5.65284503 -2.59090706 5.14229241 -4.86793518 5.15821838 C-5.9282621 5.16800752 -6.98858902 5.17779665 -8.08104706 5.18788242 C-9.26030006 5.19363757 -10.43955307 5.19939272 -11.65454102 5.20532227 C-13.51685993 5.22016741 -13.51685993 5.22016741 -15.41680145 5.23531246 C-18.87868387 5.26172714 -22.34053948 5.28356737 -25.80246282 5.30331039 C-28.7678166 5.32095057 -31.73314143 5.34207476 -34.69847196 5.36322176 C-42.76870102 5.42074078 -50.83896149 5.47086594 -58.90925926 5.51765215 C-64.8456062 5.55210783 -70.78193568 5.58880311 -76.71826172 5.62667847 C-152.47861168 6.1071083 -228.23849739 6.10856728 -304 6 C-304.5625 4.0625 -304.5625 4.0625 -305 2 C-303.34715497 0.34715497 -301.40909294 0.85770759 -299.13206482 0.84178162 C-298.0717379 0.83199248 -297.01141098 0.82220335 -295.91895294 0.81211758 C-294.73969994 0.80636243 -293.56044693 0.80060728 -292.34545898 0.79467773 C-290.48314007 0.77983259 -290.48314007 0.77983259 -288.58319855 0.76468754 C-285.12131613 0.73827286 -281.65946052 0.71643263 -278.19753718 0.69668961 C-275.2321834 0.67904943 -272.26685857 0.65792524 -269.30152804 0.63677824 C-261.23129898 0.57925922 -253.16103851 0.52913406 -245.09074074 0.48234785 C-239.1543938 0.44789217 -233.21806432 0.41119689 -227.28173828 0.37332153 C-151.52138832 -0.1071083 -75.76150261 -0.10856728 0 0 Z " fill="#FFC90E" transform="translate(344,122)"/>
<path d="M0 0 C16 0 16 0 22 5 C25.69240612 10.50377516 25.90153672 17.63026391 25 24 C22.92184532 31.14953625 21.53773722 35.07735767 15 39 C10.05 39 5.1 39 0 39 C0 26.13 0 13.26 0 0 Z " fill="#20354E" transform="translate(190,76)"/>
<path d="M0 0 C0.99 0.33 1.98 0.66 3 1 C3 2.32 3 3.64 3 5 C3.33 4.67 3.66 4.34 4 4 C8.84027804 3.56507647 11.66612799 4.5416996 15.875 6.875 C20.60662575 9.37650788 24.75800511 10.99192406 30 12 C30 12.66 30 13.32 30 14 C11.42779292 20.77111717 11.42779292 20.77111717 4.5 18 C3.7575 17.505 3.7575 17.505 3 17 C2.67 18.32 2.34 19.64 2 21 C3.98 21 5.96 21 8 21 C8.75 23.25 8.75 23.25 9 26 C7.0625 28.3125 7.0625 28.3125 5 30 C5.5878125 31.11375 5.5878125 31.11375 6.1875 32.25 C6.455625 33.1575 6.72375 34.065 7 35 C5.625 37.3125 5.625 37.3125 4 39 C4.515625 39.391875 5.03125 39.78375 5.5625 40.1875 C7 42 7 42 6.875 44.5 C5.95175231 47.13785053 5.06811223 48.1904018 3 50 C1.79727181 52.40545638 1.89928528 53.94996953 1.9375 56.625 C1.94652344 57.44226563 1.95554687 58.25953125 1.96484375 59.1015625 C1.97644531 59.72804687 1.98804687 60.35453125 2 61 C1.01 61 0.02 61 -1 61 C-0.979375 59.7625 -0.95875 58.525 -0.9375 57.25 C-0.91922425 53.0350963 -0.91922425 53.0350963 -2 49 C-2.515625 48.525625 -3.03125 48.05125 -3.5625 47.5625 C-5 46 -5 46 -5.3125 43.5 C-5 41 -5 41 -3 38 C-3.66 37.34 -4.32 36.68 -5 36 C-4.625 33.5 -4.625 33.5 -4 31 C-4 30.34 -4 29.68 -4 29 C-4.680625 28.38125 -5.36125 27.7625 -6.0625 27.125 C-7.0215625 26.073125 -7.0215625 26.073125 -8 25 C-7.75 22.75 -7.75 22.75 -7 21 C-5.02 21 -3.04 21 -1 21 C-1 21.66 -1 22.32 -1 23 C-2.32 23 -3.64 23 -5 23 C-4.67 23.99 -4.34 24.98 -4 26 C-3.01 26.33 -2.02 26.66 -1 27 C-0.67 23.37 -0.34 19.74 0 16 C-1.423125 16.7734375 -1.423125 16.7734375 -2.875 17.5625 C-10.06059768 20.61312598 -17.80063651 17.97829771 -24.96875 15.9140625 C-27 15 -27 15 -29 12 C-27.081875 11.6596875 -27.081875 11.6596875 -25.125 11.3125 C-19.75523874 10.13626658 -12.9810132 7.9810132 -9 4 C-6 3.875 -6 3.875 -3 4 C-2.67 4.33 -2.34 4.66 -2 5 C-1.34 3.35 -0.68 1.7 0 0 Z " fill="#B08534" transform="translate(82,47)"/>
<path d="M0 0 C9.84763398 -0.77608324 9.84763398 -0.77608324 14.0625 2.0625 C19.27262116 9.96171595 19.23807269 20.53880815 17.5 29.609375 C16.03784634 34.02906675 14.12273487 36.8490079 10 39 C6.86430082 39.59863348 4.13043851 39.64885453 1 39 C-3.22750729 35.96722303 -5.87531191 32.08289267 -7 27 C-7.72932511 18.69768262 -7.18780952 11.703873 -4 4 C-3.34 4 -2.68 4 -2 4 C-1.34 2.68 -0.68 1.36 0 0 Z " fill="#F9FBFB" transform="translate(325,76)"/>
<path d="M0 0 C1.5 2.0625 1.5 2.0625 2 4 C2.66 4 3.32 4 4 4 C7.2173961 8.82609415 7.15364116 13.81171454 7.1875 19.5 C7.20167969 20.5828125 7.21585937 21.665625 7.23046875 22.78125 C6.84853042 28.11543959 5.12875518 32.66787744 2 37 C-1.5961699 39.79702103 -5.65010184 39.21047894 -10 39 C-10.66 38.67 -11.32 38.34 -12 38 C-12 37.34 -12 36.68 -12 36 C-12.99 35.67 -13.98 35.34 -15 35 C-19.33496705 26.57089741 -19.20133874 15.85429773 -16.375 7 C-14.95866481 3.53344534 -14.20098249 2.16444022 -11.25 -0.25 C-6.93500133 -1.24576892 -4.31619815 -1.07904954 0 0 Z " fill="#F9FAFB" transform="translate(280,76)"/>
<path d="M0 0 C1.98 0 3.96 0 6 0 C7.90264721 3.36875632 8.73076713 6.67075164 9.5625 10.4375 C9.81128906 11.54996094 10.06007812 12.66242188 10.31640625 13.80859375 C10.90042983 16.53514956 11.46299846 19.26384927 12 22 C12.66 22 13.32 22 14 22 C14.2475 20.783125 14.495 19.56625 14.75 18.3125 C16.12037065 12.09618097 18.0701587 6.06120058 20 0 C21.98 0 23.96 0 26 0 C26.51136849 4.2487105 27.00695211 8.49912767 27.5 12.75 C27.64308594 13.93722656 27.78617188 15.12445313 27.93359375 16.34765625 C28.80458394 23.9377136 29.18964299 31.36160174 29 39 C27.35 39 25.7 39 24 39 C23.01 30.75 22.02 22.5 21 14 C20.7525 15.93875 20.505 17.8775 20.25 19.875 C19.31871408 26.03633364 17.62034797 31.36497985 15 37 C13.35 36.67 11.7 36.34 10 36 C9.80664062 35.05898437 9.61328125 34.11796875 9.4140625 33.1484375 C9.02347656 31.28058594 9.02347656 31.28058594 8.625 29.375 C8.36976563 28.14523438 8.11453125 26.91546875 7.8515625 25.6484375 C7.07977727 22.34179804 6.13180625 19.19858287 5 16 C3.81990204 18.36019593 3.70232315 20.16095717 3.46484375 22.7890625 C3.37783203 23.73007813 3.29082031 24.67109375 3.20117188 25.640625 C3.11416016 26.62546875 3.02714844 27.6103125 2.9375 28.625 C2.84662109 29.61757812 2.75574219 30.61015625 2.66210938 31.6328125 C2.43781564 34.08823868 2.21726893 36.54394389 2 39 C0.35 39 -1.3 39 -3 39 C-1.49510395 5.19548624 -1.49510395 5.19548624 0 0 Z " fill="#1F344D" transform="translate(126,76)"/>
<path d="M0 0 C6.27 0 12.54 0 19 0 C19 1.98 19 3.96 19 6 C14.71 6 10.42 6 6 6 C6 8.97 6 11.94 6 15 C9.96 15 13.92 15 18 15 C18 17.31 18 19.62 18 22 C14.04 22 10.08 22 6 22 C6 25.3 6 28.6 6 32 C10.29 32 14.58 32 19 32 C19 34.31 19 36.62 19 39 C12.73 39 6.46 39 0 39 C0 26.13 0 13.26 0 0 Z " fill="#233750" transform="translate(163,76)"/>
<path d="M0 0 C2.125 1.25 2.125 1.25 3.0625 3.125 C3.1381712 5.69782067 2.44668051 7.07311446 1.125 9.25 C0.58875 8.92 0.0525 8.59 -0.5 8.25 C-3.4911026 6.99058838 -5.65229983 6.98144165 -8.875 7.25 C-10.22708914 7.87775567 -11.56501797 8.53854424 -12.875 9.25 C-12.92904449 12.00026417 -12.96869306 14.74946203 -13 17.5 C-13.01675781 18.27730469 -13.03351563 19.05460937 -13.05078125 19.85546875 C-13.24194188 25.40957468 -13.24194188 25.40957468 -10.875 30.25 C-5.54330891 31.46446557 -5.54330891 31.46446557 -0.375 30.3125 C0.3675 29.7865625 0.3675 29.7865625 1.125 29.25 C2.6875 30.5 2.6875 30.5 4.125 32.25 C4.1875 34.1875 4.1875 34.1875 3.125 36.25 C-0.00551793 38.93330108 -2.24635915 40.13570166 -6.3125 40.875 C-10.96700709 40.05841981 -13.92260884 37.9382455 -16.875 34.25 C-16.875 33.26 -16.875 32.27 -16.875 31.25 C-17.535 31.25 -18.195 31.25 -18.875 31.25 C-20.11774423 27.37143534 -20.0952195 23.4690351 -20.125 19.4375 C-20.145625 18.75107422 -20.16625 18.06464844 -20.1875 17.35742188 C-20.23353571 11.27495392 -18.87916935 6.6299511 -14.875 1.875 C-10.48372802 -1.69290848 -5.26880941 -1.37447202 0 0 Z " fill="#20354F" transform="translate(254.875,75.75)"/>
<path d="M0 0 C9.84763398 -0.77608324 9.84763398 -0.77608324 14.0625 2.0625 C19.27262116 9.96171595 19.23807269 20.53880815 17.5 29.609375 C16.03784634 34.02906675 14.12273487 36.8490079 10 39 C6.86430082 39.59863348 4.13043851 39.64885453 1 39 C-3.22750729 35.96722303 -5.87531191 32.08289267 -7 27 C-7.72932511 18.69768262 -7.18780952 11.703873 -4 4 C-3.34 4 -2.68 4 -2 4 C-1.34 2.68 -0.68 1.36 0 0 Z M-1 6.1875 C-3.99547964 14.61228649 -3.79823432 22.74597238 -0.94921875 31.1875 C-0.00494043 33.34318691 -0.00494043 33.34318691 3 35 C6.45749949 35.66676878 6.45749949 35.66676878 10 35 C15.09771491 29.23153313 15.28631784 23.11025374 15.2265625 15.73046875 C14.83496551 11.01104979 13.39693782 7.39693782 10 4 C5.68492934 3.22214096 2.06058211 2.83998832 -1 6.1875 Z " fill="#2A677F" transform="translate(325,76)"/>
<path d="M0 0 C1.5 2.0625 1.5 2.0625 2 4 C2.66 4 3.32 4 4 4 C7.2173961 8.82609415 7.15364116 13.81171454 7.1875 19.5 C7.20167969 20.5828125 7.21585937 21.665625 7.23046875 22.78125 C6.84853042 28.11543959 5.12875518 32.66787744 2 37 C-1.5961699 39.79702103 -5.65010184 39.21047894 -10 39 C-10.66 38.67 -11.32 38.34 -12 38 C-12 37.34 -12 36.68 -12 36 C-12.99 35.67 -13.98 35.34 -15 35 C-19.33496705 26.57089741 -19.20133874 15.85429773 -16.375 7 C-14.95866481 3.53344534 -14.20098249 2.16444022 -11.25 -0.25 C-6.93500133 -1.24576892 -4.31619815 -1.07904954 0 0 Z M-12.5 6.8125 C-15.76179374 13.74381171 -16.25026697 21.17584839 -13.75 28.5 C-11.75768902 32.7129722 -11.75768902 32.7129722 -8 35 C-4.31184707 34.77131906 -4.31184707 34.77131906 -1 34 C-0.67 33.01 -0.34 32.02 0 31 C0.66 31 1.32 31 2 31 C3.66629719 21.62707831 4.48023863 12.22035795 -1 4 C-5.87180209 2.78675199 -9.13657546 3.02864739 -12.5 6.8125 Z " fill="#2B677F" transform="translate(280,76)"/>
<path d="M0 0 C0.99 0.66 1.98 1.32 3 2 C2.34 3.32 1.68 4.64 1 6 C0.67 5.67 0.34 5.34 0 5 C-2.26110806 4.72294212 -2.26110806 4.72294212 -4.875 4.6875 C-5.75929688 4.65011719 -6.64359375 4.61273438 -7.5546875 4.57421875 C-10.14111572 4.76988204 -10.14111572 4.76988204 -11.74609375 6.88671875 C-15.35230116 12.96447019 -16.23156647 19.17261902 -14.46484375 26.09765625 C-13.04965621 29.74002419 -11.56209926 32.31789757 -8 34 C-4.33285151 34.25063732 -4.33285151 34.25063732 -1 34 C-0.67 30.37 -0.34 26.74 0 23 C-1.98 23 -3.96 23 -6 23 C-6 21.35 -6 19.7 -6 18 C-2.7 18 0.6 18 4 18 C4.107834 20.93847653 4.18721916 23.87301151 4.25 26.8125 C4.30027344 28.06256836 4.30027344 28.06256836 4.3515625 29.33789062 C4.4504861 35.4958846 4.4504861 35.4958846 2.1953125 38.01953125 C-0.96407584 39.4305748 -3.53582726 39.88054577 -7 40 C-11.35631783 38.32449314 -14.77159567 36.38098123 -16.94921875 32.16015625 C-20.33258123 22.54711048 -19.9708646 13.35989513 -16 4 C-15.34 4 -14.68 4 -14 4 C-14 3.34 -14 2.68 -14 2 C-8.75488671 -1.27819581 -5.84838617 -1.24637738 0 0 Z " fill="#25637E" transform="translate(310,76)"/>
<path d="M0 0 C7 0 7 0 9.875 2.3125 C13.51930542 6.9214745 13.53451498 11.34539415 13 17 C11.87772678 21.10984193 10.64223158 23.57184561 7 26 C4.69 26 2.38 26 0 26 C0 17.42 0 8.84 0 0 Z " fill="#FBFCFC" transform="translate(196,82)"/>
<path d="M0 0 C1.65 0 3.3 0 5 0 C5 12.87 5 25.74 5 39 C3.35 39 1.7 39 0 39 C0 26.13 0 13.26 0 0 Z " fill="#142A45" transform="translate(222,76)"/>
<path d="M0 0 C1.4540625 0.0309375 1.4540625 0.0309375 2.9375 0.0625 C4.25376692 3.68223402 4.9375 6.15817131 4.9375 10.0625 C-2.90865385 12.52403846 -2.90865385 12.52403846 -7.0625 12.0625 C-8.0525 11.4025 -9.0425 10.7425 -10.0625 10.0625 C-10.619375 10.206875 -11.17625 10.35125 -11.75 10.5 C-15.38030095 11.38304618 -18.39279857 10.72424944 -22.0625 10.0625 C-22.3925 9.4025 -22.7225 8.7425 -23.0625 8.0625 C-21.78375 7.835625 -20.505 7.60875 -19.1875 7.375 C-12.61467866 5.93523913 -6.24566964 0.12746265 0 0 Z " fill="#E3BD53" transform="translate(76.0625,50.9375)"/>
<path d="M0 0 C3.7807997 0.27675275 5.93894731 1.30064714 9.24609375 3.1171875 C13.59865167 5.41542481 17.51870514 7.15357645 22.30859375 8.2421875 C22.30859375 8.5721875 22.30859375 8.9021875 22.30859375 9.2421875 C20.87133504 9.41092228 19.43377537 9.57709487 17.99609375 9.7421875 C17.19558594 9.835 16.39507812 9.9278125 15.5703125 10.0234375 C13.30859375 10.2421875 13.30859375 10.2421875 10.30859375 10.2421875 C9.64859375 10.9021875 8.98859375 11.5621875 8.30859375 12.2421875 C3.3628264 12.56650011 -0.18157049 12.49710538 -4.69140625 10.2421875 C-4.55091107 8.76250426 -4.40385799 7.28344234 -4.25390625 5.8046875 C-4.17269531 4.98097656 -4.09148437 4.15726563 -4.0078125 3.30859375 C-3.52953553 0.18503181 -3.21459672 0.28926705 0 0 Z " fill="#D8AF46" transform="translate(88.69140625,50.7578125)"/>
<path d="M0 0 C2.625 0.375 2.625 0.375 5 1 C4.67 2.65 4.34 4.3 4 6 C3.34 6 2.68 6 2 6 C2.75150023 9.27773504 2.75150023 9.27773504 6 11 C5.67 12.65 5.34 14.3 5 16 C4.34 16 3.68 16 3 16 C3.33 17.65 3.66 19.3 4 21 C3.67 21 3.34 21 3 21 C3 23.97 3 26.94 3 30 C2.01 30 1.02 30 0 30 C0.020625 28.7625 0.04125 27.525 0.0625 26.25 C0.08077575 22.0350963 0.08077575 22.0350963 -1 18 C-1.515625 17.525625 -2.03125 17.05125 -2.5625 16.5625 C-4 15 -4 15 -4.4375 12.5625 C-3.87447493 9.26478176 -2.51068992 8.11839462 0 6 C-0.66 4.68 -1.32 3.36 -2 2 C-1.34 1.34 -0.68 0.68 0 0 Z " fill="#54442F" transform="translate(81,78)"/>
<path d="M0 0 C1.98 0 3.96 0 6 0 C6 0.66 6 1.32 6 2 C4.68 2 3.36 2 2 2 C2.33 2.99 2.66 3.98 3 5 C6.43715763 6.6404616 8.18535599 7.24793513 11.875 6.125 C12.57625 5.75375 13.2775 5.3825 14 5 C13.67 4.01 13.34 3.02 13 2 C12.01 2 11.02 2 10 2 C10 1.34 10 0.68 10 0 C11.65 0 13.3 0 15 0 C15.75 2.25 15.75 2.25 16 5 C14.0625 7.3125 14.0625 7.3125 12 9 C12.391875 9.7425 12.78375 10.485 13.1875 11.25 C13.455625 12.1575 13.72375 13.065 14 14 C12.625 16.3125 12.625 16.3125 11 18 C11.515625 18.391875 12.03125 18.78375 12.5625 19.1875 C14 21 14 21 13.9375 23.5625 C13 26 13 26 10.9375 27.3125 C10.298125 27.539375 9.65875 27.76625 9 28 C9 27.34 9 26.68 9 26 C9.66 26 10.32 26 11 26 C11.25030977 23.58380177 11.25030977 23.58380177 11 21 C10.01 20.34 9.02 19.68 8 19 C8 18.01 8 17.02 8 16 C8.66 15.67 9.32 15.34 10 15 C10.65213292 12.97536745 10.65213292 12.97536745 11 11 C9.35 11 7.7 11 6 11 C5.7018576 14.7763932 5.7018576 14.7763932 7 17 C5.68 16.67 4.36 16.34 3 16 C2.375 13.625 2.375 13.625 2 11 C2.66 10.34 3.32 9.68 4 9 C3.154375 8.2575 2.30875 7.515 1.4375 6.75 C0.633125 5.8425 -0.17125 4.935 -1 4 C-0.8125 1.6875 -0.8125 1.6875 0 0 Z " fill="#CA9C35" transform="translate(75,68)"/>
<path d="M0 0 C3.3 0 6.6 0 10 0 C10.08069658 2.95887459 10.14034665 5.9155659 10.1875 8.875 C10.22520508 10.13763672 10.22520508 10.13763672 10.26367188 11.42578125 C10.27817383 12.63427734 10.27817383 12.63427734 10.29296875 13.8671875 C10.31653442 14.98262939 10.31653442 14.98262939 10.34057617 16.12060547 C10.22818604 16.74080566 10.1157959 17.36100586 10 18 C9.01 18.66 8.02 19.32 7 20 C4.85300031 16.55824478 4.90143205 14.2279708 5.375 10.25 C5.48585938 9.26515625 5.59671875 8.2803125 5.7109375 7.265625 C5.85402344 6.14414063 5.85402344 6.14414063 6 5 C4.02 5 2.04 5 0 5 C0 3.35 0 1.7 0 0 Z " fill="#40768B" transform="translate(304,94)"/>
<path d="M0 0 C1.32 0 2.64 0 4 0 C5.5625 2.375 5.5625 2.375 7 5 C9.90092502 6.93395001 10.89674737 7.30131941 14.1875 7.625 C15.445625 7.74875 16.70375 7.8725 18 8 C18 9.32 18 10.64 18 12 C12.55110309 13.19875732 9.73144584 13.01092008 5 10 C1.47174707 7.47981934 1.00102948 4.08112019 0 0 Z " fill="#376F87" transform="translate(292,103)"/>
<path d="M0 0 C0.33 0.66 0.66 1.32 1 2 C4.3 1.34 7.6 0.68 11 0 C11 0.66 11 1.32 11 2 C-5.21829856 7.91292135 -5.21829856 7.91292135 -12 7 C-12.99 6.34 -13.98 5.68 -15 5 C-14.67 4.01 -14.34 3.02 -14 2 C-12.39125 2.2784375 -12.39125 2.2784375 -10.75 2.5625 C-5.80956313 3.1388843 -4.09735013 2.73156676 0 0 Z " fill="#BC9439" transform="translate(101,59)"/>
<path d="M0 0 C0.99 0.66 1.98 1.32 3 2 C2.34 3.32 1.68 4.64 1 6 C0.67 5.67 0.34 5.34 0 5 C-1.62350493 4.92726232 -3.25000468 4.91630441 -4.875 4.9375 C-5.75929688 4.94652344 -6.64359375 4.95554687 -7.5546875 4.96484375 C-8.36164063 4.97644531 -9.16859375 4.98804687 -10 5 C-10.99 5 -11.98 5 -13 5 C-13.33 4.01 -13.66 3.02 -14 2 C-8.75488671 -1.27819581 -5.84838617 -1.24637738 0 0 Z " fill="#326C82" transform="translate(310,76)"/>
<path d="M0 0 C2.06671558 0.89020866 3.96779317 1.9895418 5.9296875 3.08984375 C8.233371 4.26829945 8.233371 4.26829945 12 4 C11.01 5.485 11.01 5.485 10 7 C6.27698497 7.47730962 5.20808915 7.1387261 2 5 C1.443125 5.144375 0.88625 5.28875 0.3125 5.4375 C-3.31780095 6.32054618 -6.33029857 5.66174944 -10 5 C-10.33 4.34 -10.66 3.68 -11 3 C-10.37351563 2.86722656 -9.74703125 2.73445313 -9.1015625 2.59765625 C-8.28429688 2.42105469 -7.46703125 2.24445312 -6.625 2.0625 C-5.81289063 1.88847656 -5.00078125 1.71445312 -4.1640625 1.53515625 C-1.970537 1.07669307 -1.970537 1.07669307 0 0 Z " fill="#D4A841" transform="translate(64,56)"/>
<path d="M0 0 C1.65 0 3.3 0 5 0 C4.835 0.94875 4.67 1.8975 4.5 2.875 C3.9473365 5.80168901 3.9473365 5.80168901 4 8 C5.32 7.67 6.64 7.34 8 7 C8 8.32 8 9.64 8 11 C3.92857143 14 3.92857143 14 1 14 C0.67 9.38 0.34 4.76 0 0 Z " fill="#A06725" transform="translate(81,62)"/>
<path d="M0 0 C0.99 0.33 1.98 0.66 3 1 C2.34 1.66 1.68 2.32 1 3 C1.01666329 5.50324332 1.01666329 5.50324332 2 8 C3.9568288 9.82337753 3.9568288 9.82337753 6 11 C5.67 11.66 5.34 12.32 5 13 C4.93049459 14.54023996 4.91547643 16.08334988 4.9375 17.625 C4.95103516 18.85089844 4.95103516 18.85089844 4.96484375 20.1015625 C4.97644531 20.72804688 4.98804687 21.35453125 5 22 C4.01 22 3.02 22 2 22 C2.020625 20.7625 2.04125 19.525 2.0625 18.25 C2.08077575 14.0350963 2.08077575 14.0350963 1 10 C0.484375 9.525625 -0.03125 9.05125 -0.5625 8.5625 C-2 7 -2 7 -2.3125 4.4375 C-2 2 -2 2 0 0 Z " fill="#B48223" transform="translate(79,86)"/>
<path d="M0 0 C2.90966973 0.67545904 4.9128293 1.43381035 7.5 2.8125 C6.06274129 2.98123478 4.62518162 3.14740737 3.1875 3.3125 C2.38699219 3.4053125 1.58648437 3.498125 0.76171875 3.59375 C-1.5 3.8125 -1.5 3.8125 -4.5 3.8125 C-5.16 4.4725 -5.82 5.1325 -6.5 5.8125 C-9.625 5.9375 -9.625 5.9375 -12.5 5.8125 C-11.84 4.4925 -11.18 3.1725 -10.5 1.8125 C-9.51 2.1425 -8.52 2.4725 -7.5 2.8125 C-6.9225 2.3175 -6.345 1.8225 -5.75 1.3125 C-3.5 -0.1875 -3.5 -0.1875 0 0 Z " fill="#D8AB42" transform="translate(103.5,57.1875)"/>
<path d="M0 0 C-0.33 0.99 -0.66 1.98 -1 3 C-7.625 4.125 -7.625 4.125 -11 3 C-11 2.01 -11 1.02 -11 0 C-3.57142857 -1.28571429 -3.57142857 -1.28571429 0 0 Z " fill="#306B81" transform="translate(311,112)"/>
<path d="M0 0 C1.8253125 0.2784375 1.8253125 0.2784375 3.6875 0.5625 C7.02977939 0.98993182 9.71968417 0.92258883 13 0 C13.33 0.66 13.66 1.32 14 2 C13.34 2 12.68 2 12 2 C11.67 2.99 11.34 3.98 11 5 C9.741875 5.04125 8.48375 5.0825 7.1875 5.125 C6.47980469 5.14820312 5.77210937 5.17140625 5.04296875 5.1953125 C3 5 3 5 0 3 C0 2.01 0 1.02 0 0 Z " fill="#A78331" transform="translate(86,61)"/>
<path d="M0 0 C0.33 0 0.66 0 1 0 C1 3.96 1 7.92 1 12 C-1.475 11.01 -1.475 11.01 -4 10 C-4 8.68 -4 7.36 -4 6 C-2.02 6.495 -2.02 6.495 0 7 C0 4.69 0 2.38 0 0 Z " fill="#0D2437" transform="translate(81,63)"/>
<path d="M0 0 C0.33 2.31 0.66 4.62 1 7 C-2.71795643 5.38888555 -4.1675353 3.6649294 -6 0 C-3.50907189 -1.24546405 -2.58919267 -0.7767578 0 0 Z " fill="#CD9D37" transform="translate(79,53)"/>
<path d="M0 0 C5.63470383 -0.5497272 8.38987758 1.04952165 13 4 C12.01 4.495 12.01 4.495 11 5 C9.576875 4.2575 9.576875 4.2575 8.125 3.5 C5.21286023 1.75186725 5.21286023 1.75186725 2.625 2.3125 C2.08875 2.539375 1.5525 2.76625 1 3 C0.67 4.32 0.34 5.64 0 7 C-0.66 6.67 -1.32 6.34 -2 6 C-1.34 4.02 -0.68 2.04 0 0 Z " fill="#F5CE62" transform="translate(86,51)"/>
<path d="M0 0 C1.32 0.66 2.64 1.32 4 2 C2.02 2.99 2.02 2.99 0 4 C0.66 5.65 1.32 7.3 2 9 C0.68 8.67 -0.64 8.34 -2 8 C-2.6875 5.6875 -2.6875 5.6875 -3 3 C-1.5625 1.1875 -1.5625 1.1875 0 0 Z " fill="#C38E23" transform="translate(80,76)"/>
<path d="M0 0 C1.65 0 3.3 0 5 0 C5 0.99 5 1.98 5 3 C1.21812119 4.83691257 -0.94568308 5.15837626 -5 4 C-4.0409375 3.8453125 -4.0409375 3.8453125 -3.0625 3.6875 C-2.381875 3.460625 -1.70125 3.23375 -1 3 C-0.67 2.01 -0.34 1.02 0 0 Z " fill="#BD9437" transform="translate(75,61)"/>
<path d="M0 0 C1.65 1.32 3.3 2.64 5 4 C4.75 6.375 4.75 6.375 4 9 C1.9375 10.3125 1.9375 10.3125 0 11 C0 10.34 0 9.68 0 9 C0.66 9 1.32 9 2 9 C2.34900558 5.28263359 2.34900558 5.28263359 0.5 2.1875 C0.005 1.795625 -0.49 1.40375 -1 1 C-0.67 0.67 -0.34 0.34 0 0 Z " fill="#B98622" transform="translate(84,85)"/>
<path d="M0 0 C1.98 0.99 1.98 0.99 4 2 C3.67 3.65 3.34 5.3 3 7 C2.01 7.33 1.02 7.66 0 8 C0 5.36 0 2.72 0 0 Z " fill="#052541" transform="translate(83,87)"/>
<path d="M0 0 C0.99 0.33 1.98 0.66 3 1 C3 2.98 3 4.96 3 7 C2.01 7.33 1.02 7.66 0 8 C0 5.36 0 2.72 0 0 Z " fill="#494934" transform="translate(83,98)"/>
<path d="M0 0 C1.65 0 3.3 0 5 0 C5 1.32 5 2.64 5 4 C3.35 4.66 1.7 5.32 0 6 C0 4.02 0 2.04 0 0 Z " fill="#07253D" transform="translate(84,69)"/>
<path d="M0 0 C3.25696479 0.41755959 4.63443291 0.63443291 7 3 C5.6078125 2.9071875 5.6078125 2.9071875 4.1875 2.8125 C1.01604897 2.69105736 1.01604897 2.69105736 -0.875 4.5 C-1.24625 4.995 -1.6175 5.49 -2 6 C-1.125 1.125 -1.125 1.125 0 0 Z " fill="#C99733" transform="translate(88,52)"/>
<path d="M0 0 C0.33 0 0.66 0 1 0 C1 2.64 1 5.28 1 8 C0.01 7.34 -0.98 6.68 -2 6 C-1.125 1.125 -1.125 1.125 0 0 Z " fill="#02263F" transform="translate(81,87)"/>
<path d="M0 0 C-1.65 1.32 -3.3 2.64 -5 4 C-5.66 3.67 -6.32 3.34 -7 3 C-7 2.01 -7 1.02 -7 0 C-2.25 -1.125 -2.25 -1.125 0 0 Z " fill="#DEB74D" transform="translate(101,57)"/>
</svg>
